#N canvas 4 87 1122 300 10;
#X obj 237 41 tgl 200 0 bangdrone1 autobangdrone1 empty 17 7 0 10 -262144
-1 -1 0 1;
#X obj 447 41 tgl 200 0 bangdrone2 autobangdrone2 empty 17 7 0 10 -262144
-1 -1 0 1;
#X obj 27 41 tgl 200 0 autodrone empty empty 17 7 0 10 -262144 -1 -1
0 1;
#X obj 659 41 tgl 200 0 bangdrone3 autobangdrone3 empty 17 7 0 10 -262144
-1 -1 0 1;
#X obj 870 41 tgl 200 0 bangdrone4 autobangdrone4 empty 17 7 0 10 -262144
-1 -1 0 1;
#X obj 626 617 loadbang;
#X msg 626 638 \; pd dsp 1;
#N canvas 1 82 1425 846 NXA004PD-1 0;
#X obj 81 246 osc~;
#X msg 81 83 bang;
#X obj 81 29 loadbang;
#X obj 81 213 + 1000;
#X obj 81 171 random 1000;
#X obj 776 314 line~;
#X obj 81 116 metro 1;
#X obj 187 154 + 10;
#X obj 187 128 random 20000;
#X obj 187 100 metro 100;
#X obj 776 206 r bangdrone1;
#X obj 776 238 select 1 0;
#X obj 141 543 +~;
#X obj 140 568 delwrite~ delay1 3000;
#X obj 222 526 delread~ delay1 100;
#X obj 141 466 lop~ 5;
#X obj 139 302 hip~ 33;
#X obj 140 330 hip~ 33;
#X obj 140 383 lop~ 20;
#X obj 140 409 lop~ 50;
#X msg 222 397 bang;
#X obj 348 542 +~;
#X obj 348 465 lop~ 5;
#X obj 346 301 hip~ 33;
#X obj 347 329 hip~ 33;
#X obj 347 382 lop~ 20;
#X obj 347 408 lop~ 50;
#X msg 429 396 bang;
#X obj 429 525 delread~ delay2 100;
#X obj 347 567 delwrite~ delay2 3000;
#X obj 222 430 metro 60000;
#X obj 347 659 hip~ 20000;
#X obj 142 667 hip~ 20000;
#X obj 345 733 *~;
#X obj 142 732 *~;
#X obj 222 484 + 50;
#X obj 222 458 random 100;
#X obj 141 611 *~ 5000;
#X obj 429 429 metro 120000;
#X obj 429 457 random 2500;
#X obj 429 483 + 50;
#X obj 348 610 *~ 33000;
#X obj 141 773 outlet~;
#X obj 344 766 outlet~;
#X msg 777 278 0.001 20000;
#X msg 849 278 0 20000;
#X connect 0 0 16 0;
#X connect 0 0 23 0;
#X connect 1 0 6 0;
#X connect 1 0 9 0;
#X connect 2 0 1 0;
#X connect 2 0 9 0;
#X connect 2 0 20 0;
#X connect 2 0 27 0;
#X connect 3 0 0 0;
#X connect 4 0 3 0;
#X connect 5 0 33 1;
#X connect 5 0 34 1;
#X connect 6 0 4 0;
#X connect 7 0 4 1;
#X connect 8 0 7 0;
#X connect 9 0 8 0;
#X connect 10 0 11 0;
#X connect 11 0 44 0;
#X connect 11 0 27 0;
#X connect 11 0 20 0;
#X connect 11 1 45 0;
#X connect 12 0 13 0;
#X connect 12 0 37 0;
#X connect 14 0 12 1;
#X connect 15 0 12 0;
#X connect 16 0 17 0;
#X connect 17 0 18 0;
#X connect 18 0 19 0;
#X connect 19 0 15 0;
#X connect 20 0 30 0;
#X connect 21 0 29 0;
#X connect 21 0 41 0;
#X connect 22 0 21 0;
#X connect 23 0 24 0;
#X connect 24 0 25 0;
#X connect 25 0 26 0;
#X connect 26 0 22 0;
#X connect 27 0 38 0;
#X connect 28 0 21 1;
#X connect 30 0 36 0;
#X connect 31 0 33 0;
#X connect 32 0 34 0;
#X connect 33 0 43 0;
#X connect 34 0 42 0;
#X connect 35 0 14 0;
#X connect 36 0 35 0;
#X connect 37 0 32 0;
#X connect 38 0 39 0;
#X connect 39 0 40 0;
#X connect 40 0 28 0;
#X connect 41 0 31 0;
#X connect 44 0 5 0;
#X connect 45 0 5 0;
#X restore 97 514 pd NXA004PD-1;
#N canvas 1 82 1425 846 NXA004PD-2 0;
#X obj 1141 681 line~;
#X obj 1141 605 select 1 0;
#X obj 1141 575 r bangdrone2;
#X obj 235 228 phasor~;
#X obj 234 364 *~;
#X obj 138 381 *~;
#X obj 139 229 phasor~;
#X obj 269 347 osc~;
#X msg 139 98 bang;
#X obj 139 185 + 20;
#X obj 235 184 + 20;
#X obj 269 295 random 100;
#X msg 269 264 bang;
#X obj 269 322 / 1000;
#X obj 139 153 random 1000;
#X obj 235 152 random 1000;
#X obj 441 225 phasor~;
#X obj 440 361 *~;
#X obj 344 378 *~;
#X obj 345 226 phasor~;
#X obj 475 344 osc~;
#X msg 345 97 bang;
#X obj 345 182 + 20;
#X obj 441 181 + 20;
#X obj 475 292 random 100;
#X msg 475 261 bang;
#X obj 475 319 / 1000;
#X obj 345 150 random 1000;
#X obj 441 149 random 1000;
#X obj 138 719 +~;
#X obj 139 477 lop~ 1000;
#X obj 343 474 lop~ 1000;
#X obj 342 581 lop~ 1000;
#X obj 138 584 lop~ 1000;
#X obj 394 439 + 1000;
#X obj 394 407 random 9000;
#X obj 190 446 + 1000;
#X obj 190 414 random 9000;
#X obj 393 544 + 1000;
#X obj 393 512 random 9000;
#X obj 189 551 + 1000;
#X obj 189 519 random 9000;
#X obj 342 637 hip~ 20000;
#X obj 137 639 hip~ 20000;
#X obj 214 616 + 20;
#X obj 214 584 random 19980;
#X obj 418 577 random 19980;
#X obj 418 609 + 20;
#X msg 139 59 bang;
#X obj 646 222 phasor~;
#X obj 645 358 *~;
#X obj 549 375 *~;
#X obj 550 223 phasor~;
#X obj 680 341 osc~;
#X msg 550 92 bang;
#X obj 550 179 + 20;
#X obj 646 178 + 20;
#X obj 680 289 random 100;
#X msg 680 258 bang;
#X obj 680 316 / 1000;
#X obj 550 147 random 1000;
#X obj 646 146 random 1000;
#X obj 852 219 phasor~;
#X obj 851 355 *~;
#X obj 755 372 *~;
#X obj 756 220 phasor~;
#X obj 886 338 osc~;
#X msg 756 91 bang;
#X obj 756 176 + 20;
#X obj 852 175 + 20;
#X obj 886 286 random 100;
#X msg 886 255 bang;
#X obj 886 313 / 1000;
#X obj 756 144 random 1000;
#X obj 852 143 random 1000;
#X obj 549 713 +~;
#X obj 550 471 lop~ 1000;
#X obj 754 468 lop~ 1000;
#X obj 753 575 lop~ 1000;
#X obj 549 578 lop~ 1000;
#X obj 805 433 + 1000;
#X obj 805 401 random 9000;
#X obj 601 440 + 1000;
#X obj 601 408 random 9000;
#X obj 804 538 + 1000;
#X obj 804 506 random 9000;
#X obj 600 545 + 1000;
#X obj 600 513 random 9000;
#X obj 753 631 hip~ 20000;
#X obj 548 633 hip~ 20000;
#X obj 625 610 + 20;
#X obj 625 578 random 19980;
#X obj 829 571 random 19980;
#X obj 829 603 + 20;
#X obj 1127 738 *~;
#X obj 548 761 *~;
#X obj 1030 645 s bangdrone2Alpha;
#X obj 139 25 r bangdrone2Alpha;
#X obj 548 794 outlet~;
#X obj 1126 779 outlet~;
#X msg 1141 645 0.15 20000;
#X msg 1214 645 0 20000;
#X connect 0 0 94 1;
#X connect 0 0 95 1;
#X connect 1 0 100 0;
#X connect 1 0 96 0;
#X connect 1 1 101 0;
#X connect 2 0 1 0;
#X connect 3 0 4 0;
#X connect 4 0 5 1;
#X connect 5 0 30 0;
#X connect 6 0 5 0;
#X connect 7 0 4 1;
#X connect 8 0 14 0;
#X connect 8 0 15 0;
#X connect 8 0 12 0;
#X connect 8 0 37 0;
#X connect 8 0 35 0;
#X connect 8 0 41 0;
#X connect 8 0 39 0;
#X connect 8 0 45 0;
#X connect 8 0 21 0;
#X connect 8 0 46 0;
#X connect 9 0 6 0;
#X connect 10 0 3 0;
#X connect 11 0 13 0;
#X connect 12 0 11 0;
#X connect 13 0 7 0;
#X connect 14 0 9 0;
#X connect 15 0 10 0;
#X connect 16 0 17 0;
#X connect 17 0 18 1;
#X connect 18 0 31 0;
#X connect 19 0 18 0;
#X connect 20 0 17 1;
#X connect 21 0 27 0;
#X connect 21 0 28 0;
#X connect 21 0 25 0;
#X connect 22 0 19 0;
#X connect 23 0 16 0;
#X connect 24 0 26 0;
#X connect 25 0 24 0;
#X connect 26 0 20 0;
#X connect 27 0 22 0;
#X connect 28 0 23 0;
#X connect 29 0 94 0;
#X connect 30 0 32 0;
#X connect 30 0 33 0;
#X connect 31 0 32 0;
#X connect 31 0 33 0;
#X connect 32 0 42 0;
#X connect 33 0 43 0;
#X connect 34 0 31 1;
#X connect 35 0 34 0;
#X connect 36 0 30 1;
#X connect 37 0 36 0;
#X connect 38 0 32 1;
#X connect 39 0 38 0;
#X connect 40 0 33 1;
#X connect 41 0 40 0;
#X connect 42 0 29 1;
#X connect 42 0 29 0;
#X connect 43 0 29 0;
#X connect 43 0 29 1;
#X connect 44 0 43 1;
#X connect 45 0 44 0;
#X connect 46 0 47 0;
#X connect 47 0 42 1;
#X connect 48 0 8 0;
#X connect 48 0 54 0;
#X connect 49 0 50 0;
#X connect 50 0 51 1;
#X connect 51 0 76 0;
#X connect 52 0 51 0;
#X connect 53 0 50 1;
#X connect 54 0 60 0;
#X connect 54 0 61 0;
#X connect 54 0 58 0;
#X connect 54 0 83 0;
#X connect 54 0 81 0;
#X connect 54 0 87 0;
#X connect 54 0 85 0;
#X connect 54 0 91 0;
#X connect 54 0 67 0;
#X connect 54 0 92 0;
#X connect 55 0 52 0;
#X connect 56 0 49 0;
#X connect 57 0 59 0;
#X connect 58 0 57 0;
#X connect 59 0 53 0;
#X connect 60 0 55 0;
#X connect 61 0 56 0;
#X connect 62 0 63 0;
#X connect 63 0 64 1;
#X connect 64 0 77 0;
#X connect 65 0 64 0;
#X connect 66 0 63 1;
#X connect 67 0 73 0;
#X connect 67 0 74 0;
#X connect 67 0 71 0;
#X connect 68 0 65 0;
#X connect 69 0 62 0;
#X connect 70 0 72 0;
#X connect 71 0 70 0;
#X connect 72 0 66 0;
#X connect 73 0 68 0;
#X connect 74 0 69 0;
#X connect 75 0 95 0;
#X connect 76 0 78 0;
#X connect 76 0 79 0;
#X connect 77 0 78 0;
#X connect 77 0 79 0;
#X connect 78 0 88 0;
#X connect 79 0 89 0;
#X connect 80 0 77 1;
#X connect 81 0 80 0;
#X connect 82 0 76 1;
#X connect 83 0 82 0;
#X connect 84 0 78 1;
#X connect 85 0 84 0;
#X connect 86 0 79 1;
#X connect 87 0 86 0;
#X connect 88 0 75 1;
#X connect 88 0 75 0;
#X connect 89 0 75 0;
#X connect 89 0 75 1;
#X connect 90 0 89 1;
#X connect 91 0 90 0;
#X connect 92 0 93 0;
#X connect 93 0 88 1;
#X connect 94 0 99 0;
#X connect 95 0 98 0;
#X connect 97 0 48 0;
#X connect 100 0 0 0;
#X connect 101 0 0 0;
#X restore 185 514 pd NXA004PD-2;
#N canvas 4 87 1425 805 auto 0;
#X obj 69 558 s autobangdrone1;
#X obj 292 559 s autobangdrone2;
#X obj 68 26 r autodrone;
#X msg 69 528 1;
#X msg 98 528 0;
#X msg 292 527 1;
#X msg 321 528 0;
#X obj 68 58 select 1 0;
#X obj 41 202 metro;
#X obj 68 112 random 60000;
#X obj 68 139 + 12000;
#X obj 7 140 delay 300;
#X floatatom 105 167 5 0 0 0 - - -;
#X msg 22 175 bang;
#X msg 167 173 stop;
#X msg 514 529 1;
#X msg 543 529 0;
#X obj 514 559 s autobangdrone3;
#X msg 764 531 1;
#X msg 793 531 0;
#X obj 764 561 s autobangdrone4;
#X obj 69 287 select 0 1 2 3 4 5 6 7 8 9 10 11 12 13;
#X obj 69 250 random 14;
#X connect 2 0 7 0;
#X connect 3 0 0 0;
#X connect 4 0 0 0;
#X connect 5 0 1 0;
#X connect 6 0 1 0;
#X connect 7 0 9 0;
#X connect 7 0 11 0;
#X connect 7 1 14 0;
#X connect 7 1 4 0;
#X connect 7 1 6 0;
#X connect 7 1 16 0;
#X connect 7 1 19 0;
#X connect 8 0 22 0;
#X connect 9 0 10 0;
#X connect 10 0 8 1;
#X connect 10 0 12 0;
#X connect 11 0 13 0;
#X connect 13 0 8 0;
#X connect 14 0 8 0;
#X connect 15 0 17 0;
#X connect 16 0 17 0;
#X connect 18 0 20 0;
#X connect 19 0 20 0;
#X connect 21 0 3 0;
#X connect 21 0 6 0;
#X connect 21 0 16 0;
#X connect 21 0 19 0;
#X connect 21 1 5 0;
#X connect 21 1 4 0;
#X connect 21 1 16 0;
#X connect 21 1 19 0;
#X connect 21 2 4 0;
#X connect 21 2 6 0;
#X connect 21 2 15 0;
#X connect 21 2 19 0;
#X connect 21 3 4 0;
#X connect 21 3 6 0;
#X connect 21 3 16 0;
#X connect 21 3 18 0;
#X connect 21 4 3 0;
#X connect 21 4 5 0;
#X connect 21 4 16 0;
#X connect 21 4 19 0;
#X connect 21 5 4 0;
#X connect 21 5 5 0;
#X connect 21 5 15 0;
#X connect 21 5 19 0;
#X connect 21 6 4 0;
#X connect 21 6 6 0;
#X connect 21 6 15 0;
#X connect 21 6 18 0;
#X connect 21 7 3 0;
#X connect 21 7 5 0;
#X connect 21 7 15 0;
#X connect 21 7 19 0;
#X connect 21 8 4 0;
#X connect 21 8 5 0;
#X connect 21 8 15 0;
#X connect 21 8 18 0;
#X connect 21 9 3 0;
#X connect 21 9 5 0;
#X connect 21 9 16 0;
#X connect 21 9 18 0;
#X connect 21 10 3 0;
#X connect 21 10 6 0;
#X connect 21 10 15 0;
#X connect 21 10 18 0;
#X connect 21 11 3 0;
#X connect 21 11 6 0;
#X connect 21 11 16 0;
#X connect 21 11 18 0;
#X connect 21 12 3 0;
#X connect 21 12 6 0;
#X connect 21 12 15 0;
#X connect 21 12 19 0;
#X connect 21 13 3 0;
#X connect 21 13 5 0;
#X connect 21 13 15 0;
#X connect 21 13 18 0;
#X connect 22 0 21 0;
#X restore 702 650 pd auto;
#N canvas 1 82 1425 846 NXA004PD-3 0;
#X obj 1151 691 line~;
#X obj 1151 615 select 1 0;
#X obj 1137 748 *~;
#X obj 1151 583 r bangdrone3;
#X obj 1040 655 s bangdrone3Alpha;
#X obj 46 315 osc~ 100;
#X msg 46 197 bang;
#X obj 73 97 r bangdrone3Alpha;
#X obj 87 364 +~;
#X obj 108 315 osc~ 100;
#X obj 108 290 / 2;
#X obj 187 381 *~;
#X obj 282 316 osc~ 100;
#X msg 282 198 bang;
#X obj 323 365 +~;
#X obj 344 316 osc~ 100;
#X obj 344 291 / 2;
#X obj 423 382 *~;
#X obj 512 314 osc~ 100;
#X msg 512 196 bang;
#X obj 553 363 +~;
#X obj 574 314 osc~ 100;
#X obj 574 289 / 2;
#X obj 653 380 *~;
#X obj 748 315 osc~ 100;
#X msg 748 197 bang;
#X obj 789 364 +~;
#X obj 810 315 osc~ 100;
#X obj 810 290 / 2;
#X obj 889 381 *~;
#X obj 293 427 +~;
#X obj 750 432 +~;
#X obj 203 321 / 10;
#X obj 438 323 / 10;
#X obj 668 321 / 10;
#X obj 904 322 / 10;
#X obj 691 497 *~ 100;
#X obj 73 147 + 10000;
#X obj 73 125 random 50000;
#X obj 46 168 metro;
#X msg 40 125 bang;
#X obj 309 96 r bangdrone3Alpha;
#X obj 309 146 + 10000;
#X obj 309 124 random 50000;
#X obj 282 167 metro;
#X msg 276 124 bang;
#X obj 539 96 r bangdrone3Alpha;
#X obj 539 146 + 10000;
#X obj 539 124 random 50000;
#X obj 512 167 metro;
#X msg 506 124 bang;
#X obj 775 100 r bangdrone3Alpha;
#X obj 775 150 + 10000;
#X obj 775 128 random 50000;
#X obj 748 171 metro;
#X msg 742 128 bang;
#X msg 1040 614 bang;
#X obj 202 295 random 100;
#X obj 439 296 random 100;
#X obj 668 294 random 100;
#X obj 904 295 random 100;
#X obj 349 495 *~ 100;
#X obj 1062 751 *~;
#X obj 1062 789 outlet~;
#X obj 1138 785 outlet~;
#X obj 202 346 osc~;
#X obj 438 347 osc~;
#X obj 668 345 osc~;
#X obj 904 346 osc~;
#X obj 293 461 lop~ 10000;
#X obj 737 466 lop~ 10000;
#X obj 46 254 + 300;
#X obj 46 224 random 1000;
#X obj 282 255 + 300;
#X obj 282 225 random 1000;
#X obj 512 253 + 300;
#X obj 512 223 random 1000;
#X obj 748 254 + 300;
#X obj 748 224 random 1000;
#X obj 691 528 hip~ 3000;
#X obj 349 527 hip~ 3000;
#X msg 1151 655 0.003 20000;
#X msg 1224 655 0 20000;
#X connect 0 0 2 1;
#X connect 0 0 62 1;
#X connect 1 0 81 0;
#X connect 1 0 4 0;
#X connect 1 1 82 0;
#X connect 2 0 64 0;
#X connect 3 0 1 0;
#X connect 5 0 8 0;
#X connect 6 0 57 0;
#X connect 6 0 72 0;
#X connect 7 0 38 0;
#X connect 7 0 40 0;
#X connect 8 0 11 0;
#X connect 9 0 8 1;
#X connect 10 0 9 0;
#X connect 11 0 30 0;
#X connect 12 0 14 0;
#X connect 13 0 58 0;
#X connect 13 0 74 0;
#X connect 14 0 17 0;
#X connect 15 0 14 1;
#X connect 16 0 15 0;
#X connect 17 0 30 1;
#X connect 18 0 20 0;
#X connect 19 0 59 0;
#X connect 19 0 76 0;
#X connect 20 0 23 0;
#X connect 21 0 20 1;
#X connect 22 0 21 0;
#X connect 23 0 31 0;
#X connect 24 0 26 0;
#X connect 25 0 60 0;
#X connect 25 0 78 0;
#X connect 26 0 29 0;
#X connect 27 0 26 1;
#X connect 28 0 27 0;
#X connect 29 0 31 1;
#X connect 30 0 69 0;
#X connect 31 0 70 0;
#X connect 32 0 65 0;
#X connect 33 0 66 0;
#X connect 34 0 67 0;
#X connect 35 0 68 0;
#X connect 36 0 79 0;
#X connect 37 0 39 1;
#X connect 38 0 37 0;
#X connect 39 0 6 0;
#X connect 40 0 39 0;
#X connect 41 0 43 0;
#X connect 41 0 45 0;
#X connect 42 0 44 1;
#X connect 43 0 42 0;
#X connect 44 0 13 0;
#X connect 45 0 44 0;
#X connect 46 0 48 0;
#X connect 46 0 50 0;
#X connect 47 0 49 1;
#X connect 48 0 47 0;
#X connect 49 0 19 0;
#X connect 50 0 49 0;
#X connect 51 0 53 0;
#X connect 51 0 55 0;
#X connect 52 0 54 1;
#X connect 53 0 52 0;
#X connect 54 0 25 0;
#X connect 55 0 54 0;
#X connect 56 0 4 0;
#X connect 57 0 32 0;
#X connect 58 0 33 0;
#X connect 59 0 34 0;
#X connect 60 0 35 0;
#X connect 61 0 80 0;
#X connect 62 0 63 0;
#X connect 65 0 11 1;
#X connect 66 0 17 1;
#X connect 67 0 23 1;
#X connect 68 0 29 1;
#X connect 69 0 61 0;
#X connect 70 0 36 0;
#X connect 71 0 5 0;
#X connect 71 0 10 0;
#X connect 72 0 71 0;
#X connect 73 0 12 0;
#X connect 73 0 16 0;
#X connect 74 0 73 0;
#X connect 75 0 18 0;
#X connect 75 0 22 0;
#X connect 76 0 75 0;
#X connect 77 0 24 0;
#X connect 77 0 28 0;
#X connect 78 0 77 0;
#X connect 79 0 2 0;
#X connect 80 0 62 0;
#X connect 81 0 0 0;
#X connect 82 0 0 0;
#X restore 277 514 pd NXA004PD-3;
#N canvas 1 82 1425 846 NXA004PD-4 0;
#X obj 1161 701 line~;
#X obj 1161 625 select 1 0;
#X obj 1147 758 *~;
#X msg 1050 624 bang;
#X obj 1072 761 *~;
#X obj 1072 799 outlet~;
#X obj 1148 795 outlet~;
#X obj 1161 593 r bangdrone4;
#X obj 1050 665 s bangdrone4Alpha;
#X obj 83 282 osc~;
#X obj 159 285 osc~;
#X obj 160 342 *~;
#X obj 145 382 +~;
#X obj 255 283 osc~;
#X obj 256 340 *~;
#X obj 241 380 +~;
#X obj 344 283 osc~;
#X obj 345 340 *~;
#X obj 330 380 +~;
#X obj 440 281 osc~;
#X obj 441 338 *~;
#X obj 426 378 +~;
#X obj 144 437 +~;
#X obj 329 438 +~;
#X obj 143 499 +~;
#X obj 83 168 r bangdrone4Alpha;
#X obj 192 169 r bangdrone4Alpha;
#X obj 302 170 r bangdrone4Alpha;
#X obj 411 170 r bangdrone4Alpha;
#X obj 520 170 r bangdrone4Alpha;
#X obj 195 91 random 100;
#X obj 195 62 r bangdrone4Alpha;
#X obj 195 126 / 100;
#X obj 316 90 random 100;
#X obj 316 61 r bangdrone4Alpha;
#X obj 316 125 / 100;
#X obj 434 90 random 100;
#X obj 434 61 r bangdrone4Alpha;
#X obj 434 125 / 100;
#X obj 546 90 random 100;
#X obj 546 61 r bangdrone4Alpha;
#X obj 546 125 / 100;
#X obj 205 326 osc~;
#X obj 301 324 osc~;
#X obj 390 324 osc~;
#X obj 486 322 osc~;
#X obj 83 232 + 5000;
#X obj 83 197 random 1000;
#X obj 192 233 + 5000;
#X obj 192 198 random 1000;
#X obj 302 234 + 5000;
#X obj 302 199 random 1000;
#X obj 411 234 + 5000;
#X obj 411 199 random 1000;
#X obj 520 235 + 5000;
#X obj 520 199 random 1000;
#X obj 639 284 osc~;
#X obj 715 287 osc~;
#X obj 716 344 *~;
#X obj 701 384 +~;
#X obj 811 285 osc~;
#X obj 812 342 *~;
#X obj 797 382 +~;
#X obj 900 285 osc~;
#X obj 901 342 *~;
#X obj 886 382 +~;
#X obj 996 283 osc~;
#X obj 997 340 *~;
#X obj 982 380 +~;
#X obj 700 439 +~;
#X obj 885 440 +~;
#X obj 699 501 +~;
#X obj 639 170 r bangdrone4Alpha;
#X obj 748 171 r bangdrone4Alpha;
#X obj 858 172 r bangdrone4Alpha;
#X obj 967 172 r bangdrone4Alpha;
#X obj 1076 172 r bangdrone4Alpha;
#X obj 751 93 random 100;
#X obj 751 64 r bangdrone4Alpha;
#X obj 751 128 / 100;
#X obj 872 92 random 100;
#X obj 872 63 r bangdrone4Alpha;
#X obj 872 127 / 100;
#X obj 990 92 random 100;
#X obj 990 63 r bangdrone4Alpha;
#X obj 990 127 / 100;
#X obj 1102 92 random 100;
#X obj 1102 63 r bangdrone4Alpha;
#X obj 1102 127 / 100;
#X obj 761 328 osc~;
#X obj 857 326 osc~;
#X obj 946 326 osc~;
#X obj 1042 324 osc~;
#X obj 639 234 + 5000;
#X obj 639 199 random 1000;
#X obj 748 235 + 5000;
#X obj 748 200 random 1000;
#X obj 858 236 + 5000;
#X obj 858 201 random 1000;
#X obj 967 236 + 5000;
#X obj 967 201 random 1000;
#X obj 1076 237 + 5000;
#X obj 1076 201 random 1000;
#X msg 1161 665 0.01 20000;
#X msg 1245 665 0 20000;
#X connect 0 0 2 1;
#X connect 0 0 4 1;
#X connect 1 0 103 0;
#X connect 1 0 8 0;
#X connect 1 1 104 0;
#X connect 2 0 6 0;
#X connect 3 0 8 0;
#X connect 4 0 5 0;
#X connect 7 0 1 0;
#X connect 9 0 12 0;
#X connect 10 0 11 0;
#X connect 11 0 12 1;
#X connect 12 0 22 0;
#X connect 13 0 14 0;
#X connect 14 0 15 1;
#X connect 15 0 22 1;
#X connect 16 0 17 0;
#X connect 17 0 18 1;
#X connect 18 0 23 0;
#X connect 19 0 20 0;
#X connect 20 0 21 1;
#X connect 21 0 23 1;
#X connect 22 0 24 0;
#X connect 23 0 24 1;
#X connect 24 0 4 0;
#X connect 25 0 47 0;
#X connect 26 0 49 0;
#X connect 27 0 51 0;
#X connect 28 0 53 0;
#X connect 29 0 55 0;
#X connect 30 0 32 0;
#X connect 31 0 30 0;
#X connect 32 0 42 0;
#X connect 33 0 35 0;
#X connect 34 0 33 0;
#X connect 35 0 43 0;
#X connect 36 0 38 0;
#X connect 37 0 36 0;
#X connect 38 0 44 0;
#X connect 39 0 41 0;
#X connect 40 0 39 0;
#X connect 41 0 45 0;
#X connect 42 0 11 1;
#X connect 43 0 14 1;
#X connect 44 0 17 1;
#X connect 45 0 20 1;
#X connect 46 0 9 0;
#X connect 47 0 46 0;
#X connect 48 0 10 0;
#X connect 49 0 48 0;
#X connect 50 0 13 0;
#X connect 51 0 50 0;
#X connect 52 0 16 0;
#X connect 53 0 52 0;
#X connect 54 0 19 0;
#X connect 55 0 54 0;
#X connect 56 0 59 0;
#X connect 57 0 58 0;
#X connect 58 0 59 1;
#X connect 59 0 69 0;
#X connect 60 0 61 0;
#X connect 61 0 62 1;
#X connect 62 0 69 1;
#X connect 63 0 64 0;
#X connect 64 0 65 1;
#X connect 65 0 70 0;
#X connect 66 0 67 0;
#X connect 67 0 68 1;
#X connect 68 0 70 1;
#X connect 69 0 71 0;
#X connect 70 0 71 1;
#X connect 71 0 2 0;
#X connect 72 0 94 0;
#X connect 73 0 96 0;
#X connect 74 0 98 0;
#X connect 75 0 100 0;
#X connect 76 0 102 0;
#X connect 77 0 79 0;
#X connect 78 0 77 0;
#X connect 79 0 89 0;
#X connect 80 0 82 0;
#X connect 81 0 80 0;
#X connect 82 0 90 0;
#X connect 83 0 85 0;
#X connect 84 0 83 0;
#X connect 85 0 91 0;
#X connect 86 0 88 0;
#X connect 87 0 86 0;
#X connect 88 0 92 0;
#X connect 89 0 58 1;
#X connect 90 0 61 1;
#X connect 91 0 64 1;
#X connect 92 0 67 1;
#X connect 93 0 56 0;
#X connect 94 0 93 0;
#X connect 95 0 57 0;
#X connect 96 0 95 0;
#X connect 97 0 60 0;
#X connect 98 0 97 0;
#X connect 99 0 63 0;
#X connect 100 0 99 0;
#X connect 101 0 66 0;
#X connect 102 0 101 0;
#X connect 103 0 0 0;
#X connect 104 0 0 0;
#X restore 369 514 pd NXA004PD-4;
#X msg 457 583 100;
#X obj 457 556 loadbang;
#X obj 577 566 r recon;
#X obj 626 566 r recoff;
#X obj 432 662 nxOutlet~;
#X connect 5 0 6 0;
#X connect 7 0 16 0;
#X connect 7 1 16 1;
#X connect 8 0 16 0;
#X connect 8 1 16 1;
#X connect 10 0 16 0;
#X connect 10 1 16 1;
#X connect 11 0 16 0;
#X connect 11 1 16 1;
#X connect 12 0 16 2;
#X connect 13 0 12 0;
#X connect 14 0 16 3;
#X connect 15 0 16 4;
